<svg xmlns="http://www.w3.org/2000/svg" viewBox="0 0 48 48" width="50px" height="50px" baseProfile="basic">
  <path fill="#6be3a2" d="M33,3H15c-2.757,0-5,2.243-5,5v37l14-8.5l12.4,9.3L38,8C38,5.243,35.757,3,33,3z" />
  <line x1="24" x2="11" y1="35.25" y2="45" fill="none" stroke="#324561" stroke-linecap="round" stroke-linejoin="round" stroke-miterlimit="10" stroke-width="2" />
  <path fill="none" stroke="#324561" stroke-linecap="round" stroke-linejoin="round" stroke-miterlimit="10" stroke-width="2" d="M37,8 v37" />
  <path fill="#324561" d="M31,21H17c-0.553,0-1-0.447-1-1s0.447-1,1-1h14c0.553,0,1,0.447,1,1S31.553,21,31,21z" />
  <path fill="#324561" d="M24,28c-0.553,0-1-0.447-1-1V13c0-0.553,0.447-1,1-1s1,0.447,1,1v14C25,27.553,24.553,28,24,28z" />
</svg>