<svg xmlns="http://www.w3.org/2000/svg" viewBox="0 0 16 16" width="16px" height="16px">
  <path fill="#dcd5f2" d="M5,14.5c-1.93,0-3.5-1.57-3.5-3.5S3.07,7.5,5,7.5S8.5,9.07,8.5,11S6.93,14.5,5,14.5z M5,9.5 c-0.827,0-1.5,0.673-1.5,1.5s0.673,1.5,1.5,1.5s1.5-0.673,1.5-1.5S5.827,9.5,5,9.5z" />
  <path fill="#8b75a1" d="M5,8c1.654,0,3,1.346,3,3s-1.346,3-3,3s-3-1.346-3-3S3.346,8,5,8 M5,13c1.103,0,2-0.897,2-2 S6.103,9,5,9c-1.103,0-2,0.897-2,2S3.897,13,5,13 M5,7c-2.209,0-4,1.791-4,4c0,2.209,1.791,4,4,4s4-1.791,4-4C9,8.791,7.209,7,5,7 L5,7z M5,12c-0.552,0-1-0.448-1-1s0.448-1,1-1s1,0.448,1,1S5.552,12,5,12L5,12z" />
  <path fill="#8b75a1" d="M7.945 10.454L9.83 9.366l-1-1.732L6.937 8.727C7.45 9.165 7.818 9.764 7.945 10.454zM5 8c.353 0 .686.072 1 .184V6H4v2.184C4.314 8.072 4.647 8 5 8zM3.063 8.727L1.17 7.634l-1 1.732 1.885 1.088C2.182 9.764 2.55 9.165 3.063 8.727zM6.937 13.273l1.893 1.093 1-1.732-1.885-1.088C7.818 12.236 7.45 12.835 6.937 13.273zM5 14c-.353 0-.686-.072-1-.184V16h2v-2.184C5.686 13.928 5.353 14 5 14zM2.055 11.546L.17 12.634l1 1.732 1.893-1.093C2.55 12.835 2.182 12.236 2.055 11.546z" />
  <path fill="#788b9c" d="M11 1.5c.316 0 .614.062.9.153V0h-1.8v1.653C10.386 1.562 10.684 1.5 11 1.5zM13.925 3.85l1.422-.821-.9-1.559L13.02 2.295C13.465 2.703 13.79 3.239 13.925 3.85zM8.98 2.295L7.553 1.471l-.9 1.559L8.075 3.85C8.21 3.239 8.535 2.703 8.98 2.295zM8.075 5.15L6.653 5.971l.9 1.559L8.98 6.705C8.535 6.297 8.21 5.761 8.075 5.15zM13.02 6.705l1.427.824.9-1.559L13.925 5.15C13.79 5.761 13.465 6.297 13.02 6.705zM11 7.5c-.316 0-.614-.062-.9-.153V9h1.8V7.347C11.614 7.438 11.316 7.5 11 7.5z" />
  <g>
    <path fill="#b6c9d6" d="M11,7.5c-1.654,0-3-1.346-3-3s1.346-3,3-3s3,1.346,3,3S12.654,7.5,11,7.5z M11,3.5 c-0.551,0-1,0.449-1,1s0.449,1,1,1s1-0.449,1-1S11.551,3.5,11,3.5z" />
    <path fill="#788b9c" d="M11,2c1.379,0,2.5,1.121,2.5,2.5S12.379,7,11,7S8.5,5.879,8.5,4.5S9.621,2,11,2 M11,6 c0.827,0,1.5-0.673,1.5-1.5C12.5,3.673,11.827,3,11,3S9.5,3.673,9.5,4.5C9.5,5.327,10.173,6,11,6 M11,1C9.067,1,7.5,2.567,7.5,4.5 S9.067,8,11,8s3.5-1.567,3.5-3.5S12.933,1,11,1L11,1z M11,5c-0.276,0-0.5-0.224-0.5-0.5C10.5,4.224,10.724,4,11,4 s0.5,0.224,0.5,0.5C11.5,4.776,11.276,5,11,5L11,5z" />
  </g>
</svg>