<svg xmlns="http://www.w3.org/2000/svg" viewBox="0 0 16 16" width="16px" height="16px">
  <path fill="#5e9c76" d="M8,2c3.308,0,6,2.692,6,6s-2.692,6-6,6s-6-2.692-6-6S4.692,2,8,2 M8,1C4.14,1,1,4.14,1,8s3.14,7,7,7 s7-3.14,7-7S11.86,1,8,1L8,1z" />
  <path fill="#bae0bd" d="M14 3.5A1.5 1.5 0 1 0 14 6.5A1.5 1.5 0 1 0 14 3.5Z" />
  <path fill="#5e9c76" d="M14,4c0.551,0,1,0.449,1,1s-0.449,1-1,1s-1-0.449-1-1S13.449,4,14,4 M14,3c-1.105,0-2,0.895-2,2 s0.895,2,2,2s2-0.895,2-2S15.105,3,14,3L14,3z" />
  <path fill="#bae0bd" d="M2 3.5A1.5 1.5 0 1 0 2 6.5A1.5 1.5 0 1 0 2 3.5Z" />
  <path fill="#5e9c76" d="M2,4c0.551,0,1,0.449,1,1S2.551,6,2,6S1,5.551,1,5S1.449,4,2,4 M2,3C0.895,3,0,3.895,0,5 s0.895,2,2,2s2-0.895,2-2S3.105,3,2,3L2,3z" />
  <g>
    <path fill="#bae0bd" d="M8 12.5A1.5 1.5 0 1 0 8 15.5A1.5 1.5 0 1 0 8 12.5Z" />
    <path fill="#5e9c76" d="M8,13c0.551,0,1,0.449,1,1s-0.449,1-1,1s-1-0.449-1-1S7.449,13,8,13 M8,12c-1.105,0-2,0.895-2,2 s0.895,2,2,2s2-0.895,2-2S9.105,12,8,12L8,12z" />
  </g>
</svg>